# xmcd CD database file generated by Grip 2.95
# 
# Track frame offsets:
#       150
#       23928
#       37191
#       51188
#       65852
#       82598
#       97246
#       107105
#       124535
#       137478
#       149140
#       161922
#       181077
#       188906
#       212258
#       222221
#       233707
# 
# Disc length: 3436 seconds
# 
# Revision: 3
# Processed by: cddbd v1.4b41PL1 Copyright (c) Steve Scherf et al.
# Submitted via: Grip 2.95
# 
DISCID=f80d6a11
DTITLE=Michal Tucny - Kosmickej vandr
DYEAR=1900
DGENRE=
TTITLE0=Kosmickej vandr
TTITLE1=Je to zvlastni
TTITLE2=Sundej s hodin zavazi
TTITLE3=Ja si jen tak litam
TTITLE4=Az prijde ten den
TTITLE5=Davej vinu dalkam
TTITLE6=Rovnou, tady rovnou
TTITLE7=Dlouha cerna limuzina
TTITLE8=Prodavac
TTITLE9=Modry mesic
TTITLE10=Ja svetem tah jen tak s celtou
TTITLE11=Muj kalendar
TTITLE12=Lodni zvon zvoni
TTITLE13=Len chciet (Vzdyt to vis)
TTITLE14=Kocerem mym je vagon
TTITLE15=Vanocni
TTITLE16=Kosmickej vandr (2)
EXTD=
EXTT0=
EXTT1=
EXTT2=
EXTT3=
EXTT4=
EXTT5=
EXTT6=
EXTT7=
EXTT8=
EXTT9=
EXTT10=
EXTT11=
EXTT12=
EXTT13=
EXTT14=
EXTT15=
EXTT16=
PLAYORDER=
